<?xml version="1.0" encoding="utf-8"?>
<!-- Generator: Adobe Illustrator 16.0.0, SVG Export Plug-In . SVG Version: 6.00 Build 0)  -->
<!DOCTYPE svg PUBLIC "-//W3C//DTD SVG 1.1//EN" "http://www.w3.org/Graphics/SVG/1.1/DTD/svg11.dtd">
<svg version="1.1" id="Layer_1" xmlns="http://www.w3.org/2000/svg" xmlns:xlink="http://www.w3.org/1999/xlink" x="0px" y="0px"
	 width="512px" height="512px" fill="#cbcbcb" viewBox="0 0 512 512" enable-background="new 0 0 512 512" xml:space="preserve">
<path d="M436.932,218.203h-0.205c0.009-0.304,0.037-0.603,0.037-0.91l-1.236-7.933l9.604-9.603c1.34,0.841,2.911,1.347,4.608,1.347
	c4.806,0,8.702-3.896,8.702-8.702v-11.298c0-4.807-3.896-8.702-8.702-8.702s-8.702,3.896-8.702,8.702v11.298
	c0,1.667,0.492,3.208,1.305,4.531l-7.57,7.57l-9.803-62.923c0-13.067-16.663-23.66-27.519-23.66H116.379
	c-10.854,0-27.518,10.593-27.518,23.66l-9.326,59.874l-7.272-7.271c0.813-1.323,1.305-2.864,1.305-4.531v-11.298
	c0-4.807-3.897-8.702-8.703-8.702c-4.805,0-8.702,3.896-8.702,8.702v11.298c0,4.807,3.897,8.702,8.702,8.702
	c1.698,0,3.269-0.506,4.609-1.347l9.304,9.304l-1.71,10.98c0,0.308,0.029,0.606,0.039,0.91h-2.038
	C38.398,218.203,16,251.011,16,291.485v20.151c0,26.175,12.441,39.938,31.145,46.404v26.878c0,5.06,4.101,9.16,9.16,9.16h71.451
	c5.06,0,9.16-4.101,9.16-9.16v-19.691l119.693,5.035l122.139-5.175v16.169c0,5.06,4.101,9.16,9.16,9.16h71.45
	c5.06,0,9.161-4.101,9.161-9.16v-24.613c16.644-6.967,27.48-20.582,27.48-45.007v-20.151
	C496,251.011,473.602,218.203,436.932,218.203z M100.275,141.391c0-9.18,15.531-16.623,25.649-16.623h261.984
	c10.117,0,25.649,7.443,25.649,16.623l10.992,53.197c0,9.181-8.203,16.624-18.321,16.624l-148.396,3.324l-150.229-3.324
	c-10.118,0-18.321-7.443-18.321-16.624L100.275,141.391z M122.941,321.201c0,0-24.875,42.848-78.843-19.128
	C-9.869,240.098,122.941,321.201,122.941,321.201z M309.579,355.639H204.255l-14.362-71.812h134.047L309.579,355.639z
	 M469.736,302.073c-53.969,61.976-78.843,19.13-78.843,19.13S523.703,240.098,469.736,302.073z"/>
</svg>
